<svg xmlns="http://www.w3.org/2000/svg" viewBox="0 0 768.52 178.66"><defs><style>.cls-1{fill:#4b66f0;}</style></defs><title>Asset 12</title><g id="Layer_2" data-name="Layer 2"><g id="Layer_1-2" data-name="Layer 1"><path class="cls-1" d="M358.67,47.92V34.05H272V148.4h15.65v-50h66.22v-14H287.65V47.92Z"/><path class="cls-1" d="M528.32,135v-101H512.78V148.4h84.7V135Z"/><path class="cls-1" d="M612.47,34.05V148.4h15.65V34.05Z"/><path class="cls-1" d="M762.46,64a52.49,52.49,0,0,0-26.32-26.32c-53.3-24-104.72,27.48-80.73,80.76a52.55,52.55,0,0,0,26.31,26.3C735,168.74,786.44,117.3,762.46,64ZM687,129.57a36.57,36.57,0,0,1-16.38-16.38c-20.16-40.46,19.83-80.46,60.3-60.32a36.56,36.56,0,0,1,16.4,16.4C767.42,109.74,727.43,149.73,687,129.57Z"/><path class="cls-1" d="M484.63,64A52.55,52.55,0,0,0,458.3,37.69c-53.3-24-104.71,27.48-80.72,80.76a52.53,52.53,0,0,0,26.3,26.3C457.16,168.74,508.61,117.3,484.63,64Zm-75.5,65.56a36.57,36.57,0,0,1-16.38-16.38c-20.15-40.46,19.83-80.46,60.3-60.32a36.51,36.51,0,0,1,16.4,16.4C489.59,109.74,449.59,149.73,409.13,129.57Z"/><path class="cls-1" d="M180.54,99.41l-27.13,27.17C142.48,137.52,132,150.18,120,160c-9.27,7.57-23.89,8-32.89-.09-.29-.27-.58-.54-.86-.82l0,0-8-8.09h0L77.4,150h0l-.81-.8L26.71,99.4c-11-11-15.87-26.59-14-42.11A51,51,0,0,1,63.22,12.64,49.38,49.38,0,0,1,98.89,27.47l4.62,4.61,3.95-3.95a6.35,6.35,0,0,0,.89-.83,50.87,50.87,0,0,1,86.12,30,51.32,51.32,0,0,1,.36,6.2H168.72l-41.85,41.85a11.47,11.47,0,0,0-5.65.18A11.69,11.69,0,1,0,135.62,120a11.36,11.36,0,0,0,.19-5.68L174,76.15h33.53s0-12.65,0-12.65a64.44,64.44,0,0,0-.45-7.74A63.45,63.45,0,0,0,103.61,14.55a63.3,63.3,0,0,0-85.23,4.08C-5,42.16-6.5,82.73,16.45,107.11c12.27,13,38.58,38.46,51.9,51.76l-.06.06,8.38,8.38.67.68A36.77,36.77,0,0,0,87,174.91h0a36.13,36.13,0,0,0,16,3.74h1.3a36.13,36.13,0,0,0,16-3.74l0,0a36.44,36.44,0,0,0,9.63-6.91l59.55-59.63A64,64,0,0,0,200.41,93.8l1.31-2.4H187.1A51.12,51.12,0,0,1,180.54,99.41Z"/><polygon class="cls-1" points="143.73 42.23 102.03 83.93 89.37 71.27 71.84 71.27 71.67 71.45 102.03 101.81 161.61 42.23 143.73 42.23"/></g></g></svg>