<svg xmlns="http://www.w3.org/2000/svg" viewBox="0 0 335.7 289.05"><defs><style>.cls-1{fill:#4b66f0;}</style></defs><title>Asset 9</title><g id="Layer_2" data-name="Layer 2"><g id="Layer_1-2" data-name="Layer 1"><path class="cls-1" d="M292.1,160.84q-22,22-43.9,43.95c-17.68,17.7-34.6,38.19-54,54-15,12.25-38.65,12.93-53.21-.15-.47-.43-.94-.87-1.39-1.32l0,0-13-13.08,0,0-1.44-1.44,0,0h0l-1.31-1.3c-14.46-14.46-80.65-80.58-80.66-80.6C25.4,143,17.54,117.8,20.63,92.69A81,81,0,0,1,44.2,44.61,81.08,81.08,0,0,1,160,44.44l7.47,7.46,6.39-6.39a10.12,10.12,0,0,0,1.44-1.34,82.13,82.13,0,0,1,139.92,58.57H273l-67.71,67.71a18.4,18.4,0,0,0-9.14.29,18.91,18.91,0,1,0,23.3,23.36,18.38,18.38,0,0,0,.31-9.19l61.72-61.71H335.7s0-20.46,0-20.46a104.81,104.81,0,0,0-.73-12.53A102.65,102.65,0,0,0,167.63,23.54a102.42,102.42,0,0,0-137.89,6.6C-8.17,68.21-10.52,133.85,26.62,173.29c19.85,21.1,62.41,62.23,84,83.75l-.09.09,13.56,13.56,1.08,1.1A59.48,59.48,0,0,0,140.71,283h0a58.35,58.35,0,0,0,25.85,6.05h2.11A58.35,58.35,0,0,0,194.57,283s.05,0,.05,0a59,59,0,0,0,15.58-11.18l96.34-96.47a103.39,103.39,0,0,0,17.7-23.56l2.12-3.88H302.71A83,83,0,0,1,292.1,160.84Z"/><polygon class="cls-1" points="232.54 68.32 165.07 135.79 144.59 115.31 116.23 115.31 115.95 115.59 165.07 164.72 261.46 68.32 232.54 68.32"/></g></g></svg>